<svg width="23" height="18" viewBox="0 0 23 18" fill="none" xmlns="http://www.w3.org/2000/svg">
<path d="M1.14844 1H3.43553C3.80052 1 4.12256 1.23897 4.22871 1.58858L7.8091 13.3801C7.91525 13.7297 8.23729 13.9687 8.60226 13.9687H16.6693C17.0486 13.9687 17.3796 13.7109 17.4729 13.3428L18.9173 7.64333C19.0105 7.2752 19.3415 7.01746 19.7209 7.01746H21.1484" stroke="white" stroke-width="1.75" stroke-linecap="round"/>
<path d="M12.972 10.2477C12.8506 10.3692 12.6538 10.3692 12.5324 10.2477L10.5539 8.26694C10.4325 8.14539 10.4325 7.94833 10.5539 7.82678C10.6753 7.70523 10.8722 7.70523 10.9936 7.82678L12.7522 9.58744L14.5108 7.82678C14.6322 7.70523 14.829 7.70523 14.9505 7.82678C15.0719 7.94833 15.0719 8.14539 14.9505 8.26694L12.972 10.2477ZM13.0631 4.21767V10.0276H12.4413V4.21767H13.0631Z" stroke="white" stroke-width="0.5"/>
<path d="M10.583 17.388C11.0981 17.388 11.5157 16.9699 11.5157 16.4543C11.5157 15.9386 11.0981 15.5205 10.583 15.5205C10.0679 15.5205 9.65039 15.9386 9.65039 16.4543C9.65039 16.9699 10.0679 17.388 10.583 17.388Z" stroke="white" stroke-width="1.18363"/>
<path d="M15.1397 17.388C15.6548 17.388 16.0723 16.9699 16.0723 16.4543C16.0723 15.9386 15.6548 15.5205 15.1397 15.5205C14.6246 15.5205 14.207 15.9386 14.207 16.4543C14.207 16.9699 14.6246 17.388 15.1397 17.388Z" stroke="white" stroke-width="1.18363"/>
</svg>
