<svg width="24" height="24" viewBox="0 0 24 24" fill="none" xmlns="http://www.w3.org/2000/svg">
<path d="M14.9588 22.0945H9.78378C5.04961 22.0945 3.03711 20.0724 3.03711 15.3478V11.0449C3.03711 10.652 3.36294 10.3262 3.75586 10.3262C4.14878 10.3262 4.47461 10.652 4.47461 11.0449V15.3478C4.47461 19.2674 5.86419 20.657 9.78378 20.657H14.9492C18.8688 20.657 20.2584 19.2674 20.2584 15.3478V11.0449C20.2584 10.652 20.5842 10.3262 20.9771 10.3262C21.37 10.3262 21.6959 10.652 21.6959 11.0449V15.3478C21.7054 20.0724 19.6834 22.0945 14.9588 22.0945Z" fill="#2153CC"/>
<path d="M12.3716 12.5101C11.3175 12.5101 10.3591 12.098 9.67871 11.3409C8.99829 10.5838 8.68204 9.59676 8.78746 8.54259L9.42954 2.14092C9.46787 1.77676 9.77454 1.48926 10.1483 1.48926H14.6237C14.9975 1.48926 15.3041 1.76717 15.3425 2.14092L15.9845 8.54259C16.09 9.59676 15.7737 10.5838 15.0933 11.3409C14.3841 12.098 13.4258 12.5101 12.3716 12.5101ZM10.7904 2.92676L10.2154 8.68634C10.1483 9.32843 10.34 9.93218 10.7425 10.373C11.557 11.2738 13.1862 11.2738 14.0008 10.373C14.4033 9.92259 14.595 9.31884 14.5279 8.68634L13.9529 2.92676H10.7904Z" fill="#2153CC"/>
<path d="M18.4186 12.5101C16.4732 12.5101 14.7386 10.9384 14.5373 9.00259L13.8665 2.28467C13.8473 2.08342 13.9144 1.88217 14.0486 1.72884C14.1828 1.57551 14.3744 1.48926 14.5853 1.48926H17.5082C20.3257 1.48926 21.6386 2.66801 22.0315 5.56218L22.2998 8.22634C22.4148 9.35718 22.0698 10.4305 21.3319 11.2451C20.594 12.0597 19.559 12.5101 18.4186 12.5101ZM15.3807 2.92676L15.9748 8.85884C16.0994 10.0568 17.2111 11.0726 18.4186 11.0726C19.1469 11.0726 19.7986 10.7947 20.2682 10.2868C20.7282 9.77884 20.939 9.09843 20.8719 8.37009L20.6036 5.73468C20.3065 3.56884 19.6069 2.92676 17.5082 2.92676H15.3807Z" fill="#2153CC"/>
<path d="M6.27599 12.5101C5.13558 12.5101 4.10058 12.0597 3.36266 11.2451C2.62474 10.4305 2.27974 9.35718 2.39474 8.22634L2.65349 5.59093C3.05599 2.66801 4.36891 1.48926 7.18641 1.48926H10.1093C10.3106 1.48926 10.5022 1.57551 10.646 1.72884C10.7897 1.88217 10.8472 2.08342 10.8281 2.28467L10.1572 9.00259C9.95599 10.9384 8.22141 12.5101 6.27599 12.5101ZM7.18641 2.92676C5.08766 2.92676 4.38808 3.55926 4.08141 5.75384L3.82266 8.37009C3.74599 9.09843 3.96641 9.77884 4.42641 10.2868C4.88641 10.7947 5.53808 11.0726 6.27599 11.0726C7.48349 11.0726 8.60474 10.0568 8.71974 8.85884L9.31391 2.92676H7.18641Z" fill="#2153CC"/>
<path d="M14.7682 22.0944H9.97656C9.58365 22.0944 9.25781 21.7686 9.25781 21.3757V18.9798C9.25781 16.9673 10.3599 15.8652 12.3724 15.8652C14.3849 15.8652 15.487 16.9673 15.487 18.9798V21.3757C15.487 21.7686 15.1611 22.0944 14.7682 22.0944ZM10.6953 20.6569H14.0495V18.9798C14.0495 17.7723 13.5799 17.3027 12.3724 17.3027C11.1649 17.3027 10.6953 17.7723 10.6953 18.9798V20.6569Z" fill="#2153CC"/>
</svg>
